<svg xmlns="http://www.w3.org/2000/svg" width="96" height="128" viewBox="0 0 96 128"><g stroke="#17251e" stroke-width="3" stroke-linejoin="round" stroke-linecap="round"><ellipse cx="48" cy="119" rx="27" ry="5" fill="#102018" opacity=".32" stroke="none"/><path d="M35 55 Q49 48 61 57 L63 85 Q48 93 32 86 Z" fill="#c2a16a"/><circle cx="48" cy="39" r="17" fill="#c98d64"/><path d="M31 37 Q31 18 48 15 Q66 18 66 38 L59 31 L36 31 Z" fill="#65503a"/><path d="M27 27 L69 27 L64 34 L31 34 Z" fill="#786245"/><path d="M34 62 L22 82 L28 87 L42 68" fill="#c98d64"/><path d="M62 61 L77 75 L72 82 L55 68" fill="#c98d64"/><path d="M37 82 L48 82 L58 111 L45 115 Z" fill="#334b3c"/><path d="M49 82 L61 82 L52 112 L37 109 Z" fill="#2b4437"/><path d="M45 111 L59 107 Q66 109 66 116 L46 120 Z" fill="#49372b"/><path d="M35 106 L52 110 L50 119 L29 115 Q30 109 35 106Z" fill="#49372b"/><path d="M38 42 L43 42 M54 42 L59 41 M45 49 Q49 51 52 49" fill="none"/><rect x="55" y="56" width="13" height="29" rx="4" fill="#3d4f3d"/></g></svg>